<svg width="52" height="52" viewBox="0 0 52 52" fill="none" xmlns="http://www.w3.org/2000/svg">
<path d="M42.8999 0H9.0999C4.07411 0 -9.91821e-05 4.07421 -9.91821e-05 9.1V42.9C-9.91821e-05 47.9258 4.07411 52 9.0999 52H42.8999C47.9257 52 51.9999 47.9258 51.9999 42.9V9.1C51.9999 4.07421 47.9257 0 42.8999 0Z" fill="#A52A11"/>
<path fill-rule="evenodd" clip-rule="evenodd" d="M23.8176 8.3553C19.4087 9.09071 21.2697 16.4227 22.2838 19.1489L22.8209 20.4754C22.904 20.6577 22.9663 20.7116 22.8957 20.912C21.7865 24.0622 20.0357 28.648 18.5091 31.4242C18.3605 31.6944 18.2325 31.9631 18.0773 32.2216C17.7815 32.7143 17.9454 32.5648 17.3829 32.7944C14.577 33.9398 9.9327 36.1666 8.34365 38.7255C6.60586 41.5239 9.32223 44.0356 12.4139 43.2855C15.2147 42.606 17.6113 39.5474 19.0942 37.5402C19.9787 36.3429 20.7568 35.0267 21.5171 33.7399C21.6573 33.5027 21.9281 33.4936 22.3819 33.3382C24.6633 32.5569 27.9048 31.7591 30.3011 31.3054C30.8397 31.2034 30.6731 31.1589 31.1531 31.5567C32.7251 32.86 34.7419 34.0992 36.748 34.6974C38.0685 35.0912 39.6011 35.4025 41.1167 35.225C42.5897 35.0526 43.6857 34.3954 44.0726 33.1847C44.2865 32.5155 44.2203 31.6872 43.9531 31.0954C42.4084 27.6741 35.1921 28.3411 32.0588 28.799C31.255 28.9165 31.5897 28.9929 30.8755 28.2922C30.3641 27.7905 30.1509 27.515 29.7009 27.0039C29.2861 26.5327 28.689 25.7563 28.3262 25.248C27.7973 24.5068 27.319 23.8024 26.8339 23.0127C26.6099 22.6478 26.4161 22.4227 26.4976 22.1785C27.3961 19.4876 28.002 16.9822 28.1515 13.8952C28.2441 11.9834 27.5846 9.6292 25.8814 8.71452C25.3404 8.42403 24.5188 8.23835 23.8176 8.3553ZM23.0806 30.8025C23.1453 30.8079 25.5258 30.1301 25.8517 30.0477C26.7398 29.8233 27.88 29.5047 28.7931 29.3848C28.6993 29.1828 28.5096 29.067 28.3699 28.8847L25.8853 25.6715C25.7525 25.4646 25.6469 25.2605 25.4986 25.0977C25.4756 25.1282 25.4926 25.094 25.455 25.1676L25.2054 25.8338C25.1096 26.0934 25.0155 26.3219 24.92 26.569L23.725 29.446C23.6064 29.7058 23.1886 30.6746 23.0806 30.8025ZM24.0496 18.612C24.2064 18.3242 24.5275 16.9247 24.6272 16.4953C24.9038 15.3027 25.3571 12.8703 25.2491 11.686C25.1791 10.9175 24.9029 10.0589 24.052 10.1435C22.7127 10.2768 22.7817 13.0515 22.9302 14.302C23.0236 15.0886 23.1765 15.8312 23.3715 16.566C23.4627 16.91 23.9037 18.4335 24.0496 18.612ZM16.9009 35.0293C16.6037 35.1094 16.0353 35.417 15.7453 35.553C14.69 36.048 13.3878 36.7639 12.4605 37.3761C11.7626 37.8369 8.72119 39.8985 9.92809 41.141C11.3573 42.6124 14.7801 38.1463 15.5421 37.068C15.8858 36.5817 16.6435 35.52 16.9009 35.0293ZM32.7814 30.5439C33.2921 30.9227 33.7777 31.3004 34.4 31.6665C35.4453 32.2817 37.1741 33.0649 38.3986 33.2416C40.8693 33.5981 41.4171 31.5918 40.2788 30.7787C38.9584 29.8356 33.1054 30.3076 32.7814 30.5439Z" fill="white"/>
</svg>
