<svg width="60" height="60" viewBox="0 0 60 60" fill="none" xmlns="http://www.w3.org/2000/svg">
<circle cx="30" cy="30" r="30" fill="white"/>
<path d="M30.5 14C32.688 14 34.7865 14.8692 36.3336 16.4164C37.8808 17.9635 38.75 20.062 38.75 22.25C38.75 24.438 37.8808 26.5365 36.3336 28.0836C34.7865 29.6308 32.688 30.5 30.5 30.5C28.312 30.5 26.2135 29.6308 24.6664 28.0836C23.1192 26.5365 22.25 24.438 22.25 22.25C22.25 20.062 23.1192 17.9635 24.6664 16.4164C26.2135 14.8692 28.312 14 30.5 14ZM30.5 34.625C39.6163 34.625 47 38.3169 47 42.875V47H14V42.875C14 38.3169 21.3837 34.625 30.5 34.625Z" fill="#625C5C"/>
</svg>
