<svg width="71" height="71" viewBox="0 0 71 71" fill="none" xmlns="http://www.w3.org/2000/svg">
<rect x="0.226044" y="0.843262" width="70" height="70" fill="#D9D9D9"/>
<path d="M35.226 16.5933C37.7788 16.5933 40.2269 17.6073 42.0319 19.4124C43.837 21.2174 44.851 23.6656 44.851 26.2183C44.851 28.771 43.837 31.2191 42.0319 33.0242C40.2269 34.8292 37.7788 35.8433 35.226 35.8433C32.6733 35.8433 30.2252 34.8292 28.4201 33.0242C26.6151 31.2191 25.601 28.771 25.601 26.2183C25.601 23.6656 26.6151 21.2174 28.4201 19.4124C30.2252 17.6073 32.6733 16.5933 35.226 16.5933V16.5933ZM35.226 40.6558C45.8617 40.6558 54.476 44.9629 54.476 50.2808V55.0933H15.976V50.2808C15.976 44.9629 24.5904 40.6558 35.226 40.6558Z" fill="#828282"/>
</svg>
