<svg width="265" height="278" viewBox="0 0 265 278" fill="none" xmlns="http://www.w3.org/2000/svg">
<rect width="265" height="278" fill="#F5F5F5"/>
<path d="M132.5 58C144.103 58 155.231 62.6094 163.436 70.8141C171.641 79.0188 176.25 90.1468 176.25 101.75C176.25 113.353 171.641 124.481 163.436 132.686C155.231 140.891 144.103 145.5 132.5 145.5C120.897 145.5 109.769 140.891 101.564 132.686C93.3594 124.481 88.75 113.353 88.75 101.75C88.75 90.1468 93.3594 79.0188 101.564 70.8141C109.769 62.6094 120.897 58 132.5 58ZM132.5 167.375C180.844 167.375 220 186.953 220 211.125V233H45V211.125C45 186.953 84.1562 167.375 132.5 167.375Z" fill="#C7C7C7"/>
</svg>
